<mxfile host="app.diagrams.net" agent="Mozilla/5.0 (Windows NT 10.0; Win64; x64) AppleWebKit/537.36 (KHTML, like Gecko) Chrome/136.0.0.0 Safari/537.36" version="27.0.6">
  <diagram name="日志流水线优化" id="cEwv6QGE_8RR6pSS1JHF">
    <mxGraphModel dx="642" dy="260" grid="0" gridSize="10" guides="1" tooltips="1" connect="1" arrows="1" fold="1" page="0" pageScale="1" pageWidth="850" pageHeight="1100" math="0" shadow="0">
      <root>
        <mxCell id="0" />
        <mxCell id="1" parent="0" />
        <mxCell id="tI9Yq3BKOj91rwqoLNJe-35" value="传统方式" style="text;html=1;strokeColor=none;fillColor=#f5f5f5;align=center;verticalAlign=middle;whiteSpace=wrap;rounded=0;fontSize=16;fontStyle=1" vertex="1" parent="1">
          <mxGeometry x="824" y="571" width="500" height="30" as="geometry" />
        </mxCell>
        <mxCell id="tI9Yq3BKOj91rwqoLNJe-36" value="领导者(Leader)" style="rounded=1;whiteSpace=wrap;html=1;fillColor=#dae8fc;strokeColor=#6c8ebf;fontStyle=1" vertex="1" parent="1">
          <mxGeometry x="729" y="601" width="120" height="50" as="geometry" />
        </mxCell>
        <mxCell id="tI9Yq3BKOj91rwqoLNJe-37" value="追随者(Follower)" style="rounded=1;whiteSpace=wrap;html=1;fillColor=#d5e8d4;strokeColor=#82b366;fontStyle=1" vertex="1" parent="1">
          <mxGeometry x="1299" y="601" width="120" height="50" as="geometry" />
        </mxCell>
        <mxCell id="tI9Yq3BKOj91rwqoLNJe-38" value="" style="endArrow=none;dashed=1;html=1;rounded=0;entryX=0.5;entryY=1;entryDx=0;entryDy=0;" edge="1" parent="1" target="tI9Yq3BKOj91rwqoLNJe-36">
          <mxGeometry width="50" height="50" relative="1" as="geometry">
            <mxPoint x="789" y="801" as="sourcePoint" />
            <mxPoint x="789" y="651" as="targetPoint" />
          </mxGeometry>
        </mxCell>
        <mxCell id="tI9Yq3BKOj91rwqoLNJe-39" value="" style="endArrow=none;dashed=1;html=1;rounded=0;entryX=0.5;entryY=1;entryDx=0;entryDy=0;" edge="1" parent="1" target="tI9Yq3BKOj91rwqoLNJe-37">
          <mxGeometry width="50" height="50" relative="1" as="geometry">
            <mxPoint x="1359" y="801" as="sourcePoint" />
            <mxPoint x="1359" y="651" as="targetPoint" />
          </mxGeometry>
        </mxCell>
        <mxCell id="tI9Yq3BKOj91rwqoLNJe-40" value="AppendEntries批次1" style="endArrow=classic;html=1;rounded=0;fillColor=#ffe6cc;strokeColor=#d79b00;fontStyle=1" edge="1" parent="1">
          <mxGeometry width="50" height="50" relative="1" as="geometry">
            <mxPoint x="789" y="661" as="sourcePoint" />
            <mxPoint x="1359" y="661" as="targetPoint" />
          </mxGeometry>
        </mxCell>
        <mxCell id="tI9Yq3BKOj91rwqoLNJe-41" value="响应1" style="endArrow=classic;html=1;rounded=0;fillColor=#fff2cc;strokeColor=#d6b656;fontStyle=1" edge="1" parent="1">
          <mxGeometry width="50" height="50" relative="1" as="geometry">
            <mxPoint x="1359" y="691" as="sourcePoint" />
            <mxPoint x="789" y="691" as="targetPoint" />
          </mxGeometry>
        </mxCell>
        <mxCell id="tI9Yq3BKOj91rwqoLNJe-42" value="AppendEntries批次2" style="endArrow=classic;html=1;rounded=0;fillColor=#ffe6cc;strokeColor=#d79b00;fontStyle=1" edge="1" parent="1">
          <mxGeometry width="50" height="50" relative="1" as="geometry">
            <mxPoint x="789" y="721" as="sourcePoint" />
            <mxPoint x="1359" y="721" as="targetPoint" />
          </mxGeometry>
        </mxCell>
        <mxCell id="tI9Yq3BKOj91rwqoLNJe-43" value="响应2" style="endArrow=classic;html=1;rounded=0;fillColor=#fff2cc;strokeColor=#d6b656;fontStyle=1" edge="1" parent="1">
          <mxGeometry width="50" height="50" relative="1" as="geometry">
            <mxPoint x="1359" y="751" as="sourcePoint" />
            <mxPoint x="789" y="751" as="targetPoint" />
          </mxGeometry>
        </mxCell>
        <mxCell id="tI9Yq3BKOj91rwqoLNJe-44" value="等待响应" style="text;html=1;strokeColor=none;fillColor=#f8cecc;align=center;verticalAlign=middle;whiteSpace=wrap;rounded=1;fontSize=12;" vertex="1" parent="1">
          <mxGeometry x="749" y="671" width="80" height="20" as="geometry" />
        </mxCell>
        <mxCell id="tI9Yq3BKOj91rwqoLNJe-45" value="等待响应" style="text;html=1;strokeColor=none;fillColor=#f8cecc;align=center;verticalAlign=middle;whiteSpace=wrap;rounded=1;fontSize=12;" vertex="1" parent="1">
          <mxGeometry x="749" y="731" width="80" height="20" as="geometry" />
        </mxCell>
        <mxCell id="tI9Yq3BKOj91rwqoLNJe-46" value="流水线方式" style="text;html=1;strokeColor=none;fillColor=#f5f5f5;align=center;verticalAlign=middle;whiteSpace=wrap;rounded=0;fontSize=16;fontStyle=1" vertex="1" parent="1">
          <mxGeometry x="839" y="861" width="500" height="30" as="geometry" />
        </mxCell>
        <mxCell id="tI9Yq3BKOj91rwqoLNJe-47" value="领导者(Leader)" style="rounded=1;whiteSpace=wrap;html=1;fillColor=#dae8fc;strokeColor=#6c8ebf;fontStyle=1" vertex="1" parent="1">
          <mxGeometry x="729" y="891" width="120" height="50" as="geometry" />
        </mxCell>
        <mxCell id="tI9Yq3BKOj91rwqoLNJe-48" value="追随者(Follower)" style="rounded=1;whiteSpace=wrap;html=1;fillColor=#d5e8d4;strokeColor=#82b366;fontStyle=1" vertex="1" parent="1">
          <mxGeometry x="1299" y="891" width="120" height="50" as="geometry" />
        </mxCell>
        <mxCell id="tI9Yq3BKOj91rwqoLNJe-49" value="" style="endArrow=none;dashed=1;html=1;rounded=0;entryX=0.5;entryY=1;entryDx=0;entryDy=0;" edge="1" parent="1" target="tI9Yq3BKOj91rwqoLNJe-47">
          <mxGeometry width="50" height="50" relative="1" as="geometry">
            <mxPoint x="789" y="1091" as="sourcePoint" />
            <mxPoint x="789" y="941" as="targetPoint" />
          </mxGeometry>
        </mxCell>
        <mxCell id="tI9Yq3BKOj91rwqoLNJe-50" value="" style="endArrow=none;dashed=1;html=1;rounded=0;entryX=0.5;entryY=1;entryDx=0;entryDy=0;" edge="1" parent="1" target="tI9Yq3BKOj91rwqoLNJe-48">
          <mxGeometry width="50" height="50" relative="1" as="geometry">
            <mxPoint x="1359" y="1091" as="sourcePoint" />
            <mxPoint x="1359" y="941" as="targetPoint" />
          </mxGeometry>
        </mxCell>
        <mxCell id="tI9Yq3BKOj91rwqoLNJe-51" value="AppendEntries批次1" style="endArrow=classic;html=1;rounded=0;fillColor=#ffe6cc;strokeColor=#d79b00;fontStyle=1" edge="1" parent="1">
          <mxGeometry width="50" height="50" relative="1" as="geometry">
            <mxPoint x="789" y="951" as="sourcePoint" />
            <mxPoint x="1359" y="951" as="targetPoint" />
          </mxGeometry>
        </mxCell>
        <mxCell id="tI9Yq3BKOj91rwqoLNJe-52" value="AppendEntries批次2" style="endArrow=classic;html=1;rounded=0;fillColor=#ffe6cc;strokeColor=#d79b00;fontStyle=1" edge="1" parent="1">
          <mxGeometry width="50" height="50" relative="1" as="geometry">
            <mxPoint x="789" y="971" as="sourcePoint" />
            <mxPoint x="1359" y="971" as="targetPoint" />
          </mxGeometry>
        </mxCell>
        <mxCell id="tI9Yq3BKOj91rwqoLNJe-53" value="AppendEntries批次3" style="endArrow=classic;html=1;rounded=0;fillColor=#ffe6cc;strokeColor=#d79b00;fontStyle=1" edge="1" parent="1">
          <mxGeometry width="50" height="50" relative="1" as="geometry">
            <mxPoint x="789" y="993" as="sourcePoint" />
            <mxPoint x="1359" y="993" as="targetPoint" />
          </mxGeometry>
        </mxCell>
        <mxCell id="tI9Yq3BKOj91rwqoLNJe-54" value="响应1" style="endArrow=classic;html=1;rounded=0;fillColor=#fff2cc;strokeColor=#d6b656;fontStyle=1" edge="1" parent="1">
          <mxGeometry width="50" height="50" relative="1" as="geometry">
            <mxPoint x="1359" y="1028" as="sourcePoint" />
            <mxPoint x="789" y="1028" as="targetPoint" />
          </mxGeometry>
        </mxCell>
        <mxCell id="tI9Yq3BKOj91rwqoLNJe-55" value="响应2" style="endArrow=classic;html=1;rounded=0;fillColor=#fff2cc;strokeColor=#d6b656;fontStyle=1" edge="1" parent="1">
          <mxGeometry width="50" height="50" relative="1" as="geometry">
            <mxPoint x="1359" y="1043" as="sourcePoint" />
            <mxPoint x="789" y="1043" as="targetPoint" />
          </mxGeometry>
        </mxCell>
        <mxCell id="tI9Yq3BKOj91rwqoLNJe-56" value="响应3" style="endArrow=classic;html=1;rounded=0;fillColor=#fff2cc;strokeColor=#d6b656;fontStyle=1" edge="1" parent="1">
          <mxGeometry width="50" height="50" relative="1" as="geometry">
            <mxPoint x="1359" y="1059" as="sourcePoint" />
            <mxPoint x="789" y="1059" as="targetPoint" />
          </mxGeometry>
        </mxCell>
        <mxCell id="tI9Yq3BKOj91rwqoLNJe-57" value="异步跟踪确认状态" style="text;html=1;strokeColor=none;fillColor=#e1d5e7;align=center;verticalAlign=middle;whiteSpace=wrap;rounded=1;fontSize=12;" vertex="1" parent="1">
          <mxGeometry x="734" y="961" width="110" height="20" as="geometry" />
        </mxCell>
        <mxCell id="tI9Yq3BKOj91rwqoLNJe-58" value="按顺序处理请求" style="text;html=1;strokeColor=none;fillColor=#e1d5e7;align=center;verticalAlign=middle;whiteSpace=wrap;rounded=1;fontSize=12;" vertex="1" parent="1">
          <mxGeometry x="1304" y="971" width="110" height="20" as="geometry" />
        </mxCell>
        <mxCell id="tI9Yq3BKOj91rwqoLNJe-59" value="批次1&#xa;[日志1, 日志2, 日志3]" style="rounded=1;whiteSpace=wrap;html=1;fillColor=#ffe6cc;strokeColor=#d79b00;align=center;verticalAlign=middle;" vertex="1" parent="1">
          <mxGeometry x="863" y="914" width="152" height="27" as="geometry" />
        </mxCell>
        <mxCell id="tI9Yq3BKOj91rwqoLNJe-60" value="批次2&#xa;[日志4, 日志5, 日志6]" style="rounded=1;whiteSpace=wrap;html=1;fillColor=#ffe6cc;strokeColor=#d79b00;align=center;verticalAlign=middle;" vertex="1" parent="1">
          <mxGeometry x="863" y="949" width="151" height="30" as="geometry" />
        </mxCell>
        <mxCell id="tI9Yq3BKOj91rwqoLNJe-61" value="批次3&#xa;[日志7, 日志8, 日志9]" style="rounded=1;whiteSpace=wrap;html=1;fillColor=#ffe6cc;strokeColor=#d79b00;align=center;verticalAlign=middle;" vertex="1" parent="1">
          <mxGeometry x="862" y="985" width="154.5" height="29" as="geometry" />
        </mxCell>
      </root>
    </mxGraphModel>
  </diagram>
</mxfile>
